<?xml version="1.0" encoding="UTF-8"?>
<svg width="400px" height="400px" viewBox="0 0 400 400" version="1.1" xmlns="http://www.w3.org/2000/svg" xmlns:xlink="http://www.w3.org/1999/xlink">
    <title>contact-card</title>
    <g id="Page-1" stroke="none" stroke-width="1" fill="none" fill-rule="evenodd">
        <g id="contact-card">
            <rect id="Rectangle" fill="#785858" x="0" y="0" width="400" height="400"></rect>
            <g id="Group" transform="translate(88.000000, 88.000000)">
                <circle id="Oval" stroke="#FFFFFF" stroke-width="2" cx="112.5" cy="112.5" r="111.5"></circle>
                <path d="M117.226804,47.31 C118.394691,47.31 119.48403,47.6457556 120.402709,48.2263348 C121.351706,48.8260746 122.118887,49.6864946 122.602614,50.706888 C122.748139,51.0138654 122.866216,51.331538 122.956504,51.6560101 C123.207511,51.4355518 123.480341,51.2304294 123.774701,51.0398806 C124.82725,50.3585294 125.937107,50.0046108 127.130584,50.0046108 C128.226798,50.0046108 129.253817,50.3003754 130.135445,50.8168381 C131.048524,51.3517257 131.805842,52.1228164 132.322883,53.0460732 C132.536307,53.4271758 132.706234,53.8296382 132.830787,54.24522 C133.054743,53.8708593 133.318921,53.522774 133.61772,53.2072709 C134.700083,52.0644005 136.234032,51.3519162 137.934708,51.3519162 C139.359589,51.3519162 140.667482,51.8519166 141.691317,52.686037 C142.733292,53.5349355 143.481645,54.7294855 143.758916,56.0948197 C143.805286,56.3231532 143.837661,56.5522278 143.856595,56.7808329 C144.084614,56.7564256 144.317071,56.7438113 144.553383,56.7436159 C145.85393,56.7425407 147.038337,57.1178113 148.00946,57.7652783 C149.011432,58.4333128 149.785687,59.3900128 150.225492,60.5138612 C150.32084,60.757508 150.399312,61.0060547 150.460925,61.2576772 C150.702666,61.1542759 150.948505,61.0681527 151.196924,60.9990299 C151.703975,60.8579428 152.238405,60.7830539 152.790378,60.7830539 C154.431596,60.7830539 155.917527,61.4465616 156.993097,62.5195745 C158.067968,63.5918907 158.732955,65.0732357 158.732955,66.7095808 C158.732955,67.0064081 158.711074,67.2981351 158.668983,67.5832224 C158.954218,67.541296 159.246045,67.5195808 159.542955,67.5195808 C161.184174,67.5195808 162.670104,68.1830886 163.745674,69.2561015 C164.820545,70.3284176 165.485533,71.8097626 165.485533,73.4461078 C165.485533,73.671043 165.473003,73.8930562 165.44857,74.1114869 C165.427405,74.3007073 165.396936,74.4905762 165.35691,74.6806191 C165.534849,74.751932 165.709717,74.8319894 165.880812,74.9206694 C166.849779,75.4228932 167.662537,76.1834331 168.227448,77.1108179 C168.773044,78.0064936 169.086907,79.05802 169.086907,80.1826347 C169.086907,80.4797753 169.065039,80.771816 169.022759,81.057233 C168.995947,81.2382316 168.960506,81.4193999 168.916259,81.6003781 C169.081697,81.6814945 169.243589,81.7703983 169.401325,81.8668916 C171.10267,82.9076715 172.23811,84.7809921 172.23811,86.9191617 C172.23811,87.3985748 172.181165,87.8647118 172.073466,88.3111588 C172.020439,88.5309761 171.954284,88.7494321 171.874739,88.9655686 C172.089356,89.0409919 172.300185,89.1289343 172.506043,89.2292521 C173.509542,89.7182752 174.354238,90.4815706 174.94242,91.4212665 C175.51114,92.3298694 175.839485,93.403651 175.839485,94.5538922 C175.839485,95.9782351 175.335756,97.2852288 174.496201,98.3071177 C174.347906,98.4876198 174.188851,98.6595693 174.020077,98.8220435 C174.189201,98.9840521 174.348278,99.1557157 174.49657,99.3359504 C175.336105,100.356325 175.839485,101.662958 175.839485,103.086826 C175.839485,103.775521 175.72191,104.43682 175.505334,105.051694 C176.61443,106.91262 177.19,108.300933 177.19,109.823353 C177.19,110.590125 177.044226,111.322938 176.778405,111.995527 C177.044202,113.263792 177.19,113.996649 177.19,114.763473 C177.19,116.399818 176.525012,117.881163 175.450141,118.953479 C174.374572,120.026492 172.888641,120.69 171.247423,120.69 C169.896557,120.69 168.650823,120.240645 167.652634,119.483138 C166.475099,118.589528 165.641318,117.267777 165.386643,115.749792 L165.386643,115.749792 L53.7664571,115.74988 C52.0729534,115.690178 50.5864635,115.017261 49.5212104,113.95454 C48.4521026,112.887973 47.81,111.430415 47.81,109.823353 C47.81,108.043782 48.5965514,106.447616 49.8413077,105.361368 C50.0215177,105.204106 50.2110171,105.057806 50.4084783,104.923184 C50.2608072,104.73428 50.1254211,104.537247 50.0027331,104.333392 C49.4678423,103.444636 49.1605155,102.403307 49.1605155,101.290419 C49.1605155,100.040252 49.5484695,98.8804355 50.2111664,97.9245383 C50.8936495,96.9401007 51.8668927,96.1715012 53.0072261,95.7427725 C53.3294065,95.6216431 53.6594262,95.5297108 53.9932645,95.4665986 C53.782023,95.1946919 53.596883,94.9067939 53.4386458,94.6067428 C53.0059758,93.7863094 52.76189,92.8512114 52.76189,91.8592814 C52.76189,90.483277 53.2319753,89.2167732 54.0208661,88.2110688 C54.8271894,87.1831408 55.9660086,86.4270628 57.2761889,86.1048517 C57.5606317,86.0348989 57.8474036,85.9868094 58.1342476,85.959833 C58.0246923,85.6872535 57.9370416,85.4104674 57.8709128,85.1314736 C57.7677268,84.696137 57.7137801,84.2420843 57.7137801,83.7754491 C57.7137801,83.3695086 57.754602,82.9730869 57.8325049,82.5900752 C57.7546879,81.8840373 57.7137801,81.4872066 57.7137801,81.0808383 C57.7137801,79.7186148 58.1744868,78.4637044 58.9491505,77.4629194 C59.7416646,76.4390736 60.8622005,75.6806087 62.1539882,75.3451387 C62.3296536,75.2995193 62.5063585,75.2622746 62.6835356,75.2330224 C62.6970162,75.0543369 62.7187741,74.8752349 62.7490497,74.696205 C62.9875284,73.286 63.7265815,72.0453485 64.7767259,71.1611052 C65.811292,70.2899791 67.1483612,69.7650898 68.6082474,69.7650898 C68.8082868,69.7650898 69.0060201,69.7749449 69.200867,69.7940986 C69.2870088,69.5682264 69.3574966,69.3418685 69.4028919,69.1120614 C69.5061056,68.5895581 69.4825664,68.0342234 69.4481237,67.456023 C69.4335588,67.2115185 69.4182474,66.9622887 69.4182474,66.7095808 C69.4182474,65.0732357 70.0832351,63.5918907 71.1581061,62.5195745 C72.2336756,61.4465616 73.7196064,60.7830539 75.3608247,60.7830539 C75.5608683,60.7830539 75.7586047,60.7929113 75.9534443,60.8120627 C76.0395861,60.5861905 76.1100739,60.3598326 76.1554693,60.1300255 C76.258683,59.6075221 76.2351437,59.0521875 76.200701,58.4739871 C76.1861362,58.2294825 76.1708247,57.9802528 76.1708247,57.7275449 C76.1708247,56.0911998 76.8358124,54.6098547 77.9106834,53.5375386 C78.9862529,52.4645257 80.4721837,51.801018 82.1134021,51.801018 C84.0912559,51.801018 85.8435026,52.7647443 86.9239727,54.247224 C87.0567892,54.4294576 87.1790357,54.6189545 87.2901732,54.8143691 C87.4871023,54.70268 87.6890521,54.603145 87.8949099,54.5158115 C88.6073675,54.2135571 89.392386,54.0465269 90.2164948,54.0465269 C90.8993377,54.0465269 91.5553385,54.1611734 92.1660669,54.3725944 C92.4343043,54.4654525 92.6978638,54.5783826 92.9545609,54.7113813 C93.0129661,54.4326983 93.0917824,54.1570934 93.1912124,53.8868809 C93.6140161,52.7378639 94.3838535,51.7561977 95.3735132,51.067269 C96.3360724,50.3972057 97.5069939,50.0046108 98.7697595,50.0046108 C99.756287,50.0046108 100.686783,50.2440887 101.505686,50.6685024 C101.754296,50.7973497 101.994908,50.9444276 102.22542,51.1091106 C102.326684,50.8471455 102.446658,50.5919327 102.584817,50.3456794 C103.101858,49.4241139 103.858724,48.6545115 104.771038,48.1206693 C105.651992,47.6051777 106.678066,47.31 107.773196,47.31 C109.393361,47.31 110.862203,47.9565833 111.934323,49.0054315 C112.138093,49.2047792 112.32765,49.4187736 112.501336,49.6456318 C112.674694,49.418535 112.864006,49.2044631 113.067561,49.0050774 C114.1382,47.9563664 115.606887,47.31 117.226804,47.31 Z" id="Combined-Shape" stroke="#FFFFFF" stroke-width="1.62"></path>
                <path d="M177.992853,106.5 C177.805957,119.567983 173.961835,131.730516 167.459066,141.964215 C160.466132,152.96931 150.399167,161.744215 138.501343,167.013634 L138.501343,167.013634 L138.50009,181 L86.9999569,181 L86.9993633,167.232851 C75.1353985,162.098562 65.0592148,153.490763 57.9876917,142.657863 C51.2328878,132.310147 47.2200333,119.93182 47.0088777,106.616582 L47.0088777,106.616582 Z" id="Combined-Shape" stroke="#F7B500" stroke-width="2" fill="#785858"></path>
            </g>
        </g>
    </g>
</svg>