<?xml version="1.0" encoding="UTF-8"?>
<svg width="300px" height="300px" viewBox="0 0 300 300" version="1.1" xmlns="http://www.w3.org/2000/svg" xmlns:xlink="http://www.w3.org/1999/xlink">
    <title>icon</title>
    <g id="Page-1" stroke="none" stroke-width="1" fill="none" fill-rule="evenodd">
        <g id="icon">
            <circle id="Oval" fill="#785858" cx="149.538462" cy="149.538462" r="149.538462"></circle>
            <path d="M155.821475,63.3092308 C157.290511,63.3092308 158.66084,63.7313133 159.816485,64.4615597 C161.010345,65.2159536 161.975632,66.2981743 162.584297,67.5817499 C162.89123,68.2290217 163.101128,68.9141071 163.211994,69.6136121 C163.668985,69.0570426 164.199393,68.5760583 164.782652,68.1797503 C165.980162,67.3660772 167.427473,66.8909903 168.985884,66.8909903 C170.364624,66.8909903 171.656433,67.2626964 172.765389,67.9121737 C173.914057,68.5849093 174.866891,69.5546992 175.517534,70.7159516 C175.976964,71.5359302 176.276305,72.4345634 176.403428,73.360382 C176.757666,72.4858411 177.272938,71.6911241 177.914267,71.0152039 C179.277819,69.578106 181.207554,68.6818701 183.347058,68.6818701 C185.139424,68.6818701 186.784724,69.3106051 188.072711,70.3597944 C189.383152,71.4272759 190.324808,72.9292364 190.673733,74.6462872 C190.76222,75.0817332 190.810212,75.5193218 190.819932,75.9540746 C191.248523,75.8842276 191.690919,75.8478237 192.144511,75.8475749 C193.784692,75.8466752 195.278998,76.3186749 196.503913,77.1354855 C197.763621,77.975497 198.73718,79.1781813 199.290129,80.5911422 C199.474029,81.0610655 199.607976,81.5454853 199.691877,82.0367557 C200.145849,81.8038945 200.613971,81.6218445 201.089206,81.4895637 C201.726484,81.3121789 202.399048,81.2180286 203.093672,81.2180286 C205.158448,81.2180286 207.027912,82.0526843 208.381076,83.4026327 C209.732948,84.7512908 210.569405,86.6143596 210.569405,88.6724275 C210.569405,89.254525 210.502491,89.8210233 210.376148,90.364449 C210.920229,90.2388231 211.487049,90.1724275 212.069405,90.1724275 C214.134181,90.1724275 216.003645,91.0070832 217.35681,92.3570316 C218.708681,93.7056897 219.545139,95.5687585 219.545139,97.6268263 C219.545139,97.9097059 219.529402,98.188914 219.498697,98.4636203 L219.498697,98.4636203 L219.384232,99.4877131 L220.29909,99.9619518 C221.518047,100.593827 222.540681,101.550878 223.251505,102.717924 C223.937598,103.844366 224.332197,105.166864 224.332197,106.581225 C224.332197,106.954794 224.304748,107.321958 224.251637,107.680803 C224.201405,108.020199 224.127046,108.360068 224.027647,108.698557 C224.345831,108.836954 224.65486,108.997598 224.952162,109.179645 C227.092314,110.490128 228.520872,112.846126 228.520872,115.535624 C228.520872,116.137959 228.449474,116.723643 228.314313,117.284623 C228.21404,117.700804 228.07633,118.113107 227.900069,118.517173 C228.31582,118.636681 228.722371,118.792481 229.114546,118.983931 C230.377152,119.600302 231.440062,120.561445 232.180181,121.744374 C232.895213,122.887206 233.30793,124.237533 233.30793,125.683943 C233.30793,127.474779 232.674799,129.118134 231.619424,130.403152 C231.337157,130.746837 231.023876,131.065877 230.68319,131.355671 C231.02424,131.645124 231.33743,131.963938 231.619573,132.307363 C232.674727,133.591701 233.30793,135.235201 233.30793,137.026181 C233.30793,137.892202 233.160225,138.723807 232.88791,139.497026 C232.785909,139.786653 232.665149,140.071708 232.525528,140.350627 C232.7602,140.553384 232.981753,140.77036 233.188968,141.000056 C234.378948,142.319143 235.103077,144.065508 235.103077,145.98058 C235.103077,146.944986 234.91985,147.866711 234.585466,148.712654 C234.511789,148.899047 234.430241,149.083106 234.340954,149.26436 C234.430363,149.445471 234.51189,149.629399 234.58554,149.81565 C234.919893,150.661184 235.103077,151.582827 235.103077,152.54714 C235.103077,154.605207 234.266619,156.468276 232.914748,157.816934 C231.561583,159.166883 229.692119,160.001538 227.627343,160.001538 C225.927998,160.001538 224.360816,159.436461 223.105073,158.483543 C221.533472,157.290937 220.448151,155.492281 220.203994,153.435229 L220.203994,153.435229 L71.4715258,153.434979 C69.3486923,153.370252 67.4749251,152.526369 66.1301969,151.184837 C64.785338,149.843175 63.9738462,148.00634 63.9738462,145.98058 C63.9738462,143.742183 64.9634163,141.734611 66.5291024,140.36838 C66.8736986,140.067683 67.2452961,139.798843 67.6385307,139.565508 C67.3327706,139.222064 67.0619531,138.853133 66.8279215,138.464444 C66.1552242,137.347203 65.7689929,136.037721 65.7689929,134.638342 C65.7689929,133.0663 66.2566664,131.607805 67.0899543,130.405739 C67.948487,129.167257 69.172718,128.200162 70.607257,127.660691 C71.2517664,127.418317 71.9212208,127.268844 72.595638,127.21085 C72.1176707,126.710238 71.7199444,126.152806 71.4063907,125.557582 C70.8628799,124.525826 70.5560508,123.349716 70.5560508,122.102183 C70.5560508,120.371864 71.1470545,118.779192 72.1390253,117.514455 C73.1532248,116.221376 74.585535,115.269977 76.2335895,114.864484 C76.7878364,114.728115 77.3491164,114.657762 77.9067258,114.650064 C77.6516204,114.133356 77.4618645,113.601272 77.3352204,113.063864 C77.2061982,112.516363 77.1382554,111.944558 77.1382554,111.356905 C77.1382554,110.846081 77.1895952,110.347232 77.2876508,109.865267 C77.1896534,108.785451 77.1382554,108.286293 77.1382554,107.775145 C77.1382554,106.061892 77.7176404,104.483576 78.691997,103.224932 C79.6891067,101.936897 81.0987933,100.982544 82.7240856,100.56063 C83.0560087,100.474466 83.3908763,100.412077 83.7261503,100.372542 C83.7359773,100.035831 83.7689825,99.6972269 83.826199,99.3588122 C84.1260827,97.5851119 85.0558029,96.025144 86.3762675,94.9132138 C87.6777023,93.817308 89.3597453,93.1572271 91.1961935,93.1572271 L91.1961935,93.1572271 L93.8851484,93.2971508 L93.1254092,91.1677456 C92.8470233,90.3874827 92.6961935,89.5475267 92.6961935,88.6724275 C92.6961935,86.6143596 93.532651,84.7512908 94.8845224,83.4026327 C96.2376872,82.0526843 98.1071512,81.2180286 100.171927,81.2180286 L100.171927,81.2180286 L102.861149,81.3579674 L102.101088,79.2283931 C101.822817,78.4487208 101.671927,77.6085534 101.671927,76.7332289 C101.671927,74.675161 102.508385,72.8120923 103.860256,71.4634342 C105.213421,70.1134857 107.082885,69.27883 109.147661,69.27883 C111.636117,69.27883 113.84073,70.4913763 115.200074,72.3566305 C115.452959,72.7036334 115.675382,73.0715668 115.865135,73.4557905 C116.228344,73.2204628 116.607637,73.0197857 116.99832,72.8539807 C117.895062,72.4734049 118.882259,72.2636297 119.918541,72.2636297 C120.777635,72.2636297 121.602989,72.4077327 122.371374,72.6737169 C122.889556,72.8530906 123.393832,73.0920494 123.874401,73.3914005 C123.944612,72.8432803 124.076076,72.3006211 124.269768,71.7742396 C124.801604,70.3289179 125.770242,69.0942409 127.015173,68.2276328 C128.226111,67.3846871 129.69923,66.8909903 131.287803,66.8909903 C132.528835,66.8909903 133.699449,67.1920417 134.729646,67.7259539 C135.209847,67.9748239 135.666299,68.2777918 136.089317,68.6328798 C136.246106,68.1112197 136.459826,67.6062129 136.728057,67.1280774 C137.378449,65.9687208 138.33072,65.0005222 139.478555,64.3288737 C140.586824,63.6803764 141.877737,63.3092308 143.255448,63.3092308 C145.293386,63.3092308 147.141069,64.1223095 148.48983,65.4414599 C148.884563,65.8275271 149.23691,66.2572795 149.539066,66.7229248 C149.840968,66.2570348 150.193124,65.8272901 150.587664,65.4412768 C151.935766,64.1223107 153.783505,63.3092308 155.821475,63.3092308 Z" id="Combined-Shape" stroke="#FFFFFF" stroke-width="3"></path>
            <path d="M62.656,141.733 L236.420186,141.733846 C236.140845,159.005675 231.046161,175.07977 222.447488,188.61181 C213.150366,203.243025 199.757694,214.903026 183.929048,221.888635 L183.929048,221.888635 L183.927794,240.42 L115.813763,240.42 L115.812749,222.178692 C100.028873,215.372567 86.6237397,203.934454 77.2219529,189.531768 C68.2612871,175.804839 62.9377262,159.384454 62.6563632,141.710716 L62.656,141.733 Z" id="Combined-Shape" stroke="#F7B500" stroke-width="3" fill="#785858"></path>
        </g>
    </g>
</svg>