<?xml version="1.0" encoding="UTF-8"?>
<svg width="480px" height="448px" viewBox="0 0 480 448" version="1.1" xmlns="http://www.w3.org/2000/svg" xmlns:xlink="http://www.w3.org/1999/xlink">
    <title>logovertical</title>
    <g id="Page-1" stroke="none" stroke-width="1" fill="none" fill-rule="evenodd">
        <g id="logovertical">
            <text id="Ricerooms." font-family="HelveticaNeue-Light, Helvetica Neue" font-size="90" font-weight="300" letter-spacing="3.89999986" fill="#000000">
                <tspan x="0.405000715" y="429">Ricerooms.</tspan>
            </text>
            <g id="Group-2" transform="translate(90.000000, 0.000000)">
                <circle id="Oval" fill="#494949" cx="150" cy="150" r="150"></circle>
                <path d="M156.302405,63.5 C157.776967,63.5 159.152443,63.9236959 160.312411,64.6567227 C161.510732,65.4139864 162.479602,66.5003199 163.090478,67.7887611 C163.397258,68.4358127 163.607429,69.1205031 163.718918,69.8198028 C164.176031,69.2637392 164.70626,68.7829745 165.289255,68.386584 C166.490887,67.5695677 167.943425,67.0928144 169.507446,67.0928144 C170.891284,67.0928144 172.18787,67.4658945 173.300929,68.117769 C174.453846,68.7929868 175.410206,69.7663558 176.063264,70.9318949 C176.521489,71.7497072 176.821057,72.6454725 176.950073,73.5685928 C177.305458,72.6972859 177.820242,71.9053501 178.459959,71.2311701 C179.82861,69.7887875 181.765502,68.8892216 183.912944,68.8892216 C185.711952,68.8892216 187.363347,69.5202881 188.656106,70.5733649 C189.971407,71.644805 190.91655,73.1523377 191.266769,74.875755 C191.355221,75.3110273 191.403359,75.7484327 191.413224,76.1831035 C191.841791,76.1135419 192.284095,76.0772914 192.737548,76.0770427 C194.383763,76.0761397 195.883558,76.5498932 197.112977,77.3697073 C198.377361,78.2128381 199.354533,79.4199895 199.909534,80.8381967 C200.09327,81.3077008 200.227327,81.791622 200.31163,82.282364 C200.765196,82.0504362 201.232938,81.8689397 201.70838,81.7366835 C202.348924,81.5585003 203.023652,81.4640719 203.720504,81.4640719 C205.79293,81.4640719 207.669319,82.3018209 209.027498,83.6567707 C210.384382,85.0104301 211.22394,86.8804081 211.22394,88.9461078 C211.22394,89.5277162 211.157386,90.0938091 211.031856,90.6371256 C211.575678,90.5121452 212.142083,90.4461078 212.72394,90.4461078 C214.796366,90.4461078 216.672756,91.2838569 218.030934,92.6388067 C219.387819,93.9924661 220.227377,95.8624441 220.227377,97.9281437 C220.227377,98.2124004 220.211545,98.4929635 220.180656,98.7689965 L220.180656,98.7689965 L220.066016,99.7934455 L220.981305,100.267665 C222.204846,100.901593 223.231164,101.861861 223.944528,103.032877 C224.633204,104.163366 225.02921,105.490678 225.02921,106.91018 C225.02921,107.28511 225.001662,107.653613 224.948361,108.013766 C224.898144,108.353081 224.8239,108.692868 224.724702,109.031323 C225.042731,109.169871 225.351634,109.330568 225.648858,109.512577 C227.796946,110.827988 229.230813,113.192731 229.230813,115.892216 C229.230813,116.496726 229.159163,117.084527 229.023526,117.647538 C228.923305,118.063541 228.785819,118.475686 228.609847,118.879661 C229.02535,118.999457 229.431672,119.155373 229.823683,119.346773 C231.090989,119.965536 232.157858,120.930309 232.900729,122.117675 C233.618401,123.264764 234.032646,124.62009 234.032646,126.071856 C234.032646,127.86958 233.396992,129.519234 232.337443,130.809096 C232.055031,131.152896 231.741695,131.472118 231.40102,131.762125 C231.742171,132.05164 232.055522,132.37046 232.337888,132.713876 C233.39726,134.002297 234.032646,135.651716 234.032646,137.449102 C234.032646,138.318092 233.884475,139.152557 233.611296,139.92846 C233.509388,140.217908 233.388814,140.50281 233.249461,140.781469 C233.483775,140.984346 233.705041,141.201345 233.912058,141.430979 C235.106344,142.755745 235.833333,144.508741 235.833333,146.431138 C235.833333,147.399081 235.64944,148.324188 235.313842,149.173241 C235.240205,149.359541 235.158734,149.54352 235.069445,149.724719 C235.158762,149.90586 235.240235,150.089809 235.31387,150.276076 C235.649456,151.124978 235.833333,152.050055 235.833333,153.017964 C235.833333,155.083664 234.993775,156.953642 233.63689,158.307301 C232.278712,159.662251 230.402323,160.5 228.329897,160.5 C226.624255,160.5 225.051266,159.932827 223.79087,158.976378 C222.214481,157.780138 221.125538,155.976399 220.879524,153.913425 L220.879524,153.913425 L71.692046,153.913174 C69.5613793,153.848225 67.680714,153.001208 66.3310327,151.654735 C64.981176,150.308086 64.1666667,148.464426 64.1666667,146.431138 C64.1666667,144.184619 65.1597459,142.169744 66.7310212,140.798454 C67.0751213,140.49815 67.4460511,140.229496 67.8385802,139.996138 C67.5338712,139.652586 67.2638094,139.28374 67.0301606,138.895239 C66.3550104,137.772628 65.967354,136.458383 65.967354,135.053892 C65.967354,133.476178 66.4567388,132.01241 67.2929629,130.805956 C68.1545225,129.562949 69.383082,128.59227 70.8227175,128.050686 C71.4652989,127.80895 72.1326011,127.659221 72.8049458,127.600019 C72.3299518,127.099263 71.9344818,126.542518 71.6222107,125.948642 C71.0773492,124.912426 70.7691867,123.731605 70.7691867,122.479042 C70.7691867,120.742397 71.3623197,119.143897 72.3578734,117.874501 C73.3757377,116.576657 74.8132334,115.621718 76.4672703,115.214632 C77.0198948,115.078622 77.5794918,115.008 78.1357395,114.999501 C77.8829528,114.483185 77.695008,113.951794 77.5691144,113.415372 C77.4400139,112.865286 77.3717068,112.290907 77.3717068,111.700599 C77.3717068,111.187866 77.4232406,110.687153 77.5216657,110.203388 C77.4232907,109.12179 77.3717068,108.620803 77.3717068,108.107784 C77.3717068,106.3882 77.9532259,104.804049 78.9311722,103.540746 C79.9319532,102.247944 81.3468336,101.290054 82.9781164,100.866555 C83.309869,100.780428 83.6445528,100.717966 83.9798121,100.678476 C83.9898414,100.341782 84.0229592,100.00321 84.0801901,99.6648268 C84.3813047,97.8844591 85.3145212,96.3186622 86.6399168,95.202593 C87.9461847,94.1026305 89.6344367,93.4401198 91.4776632,93.4401198 L91.4776632,93.4401198 L94.1650156,93.5796707 L93.4079632,91.4518744 C93.1292006,90.6683752 92.9776632,89.8248958 92.9776632,88.9461078 C92.9776632,86.8804081 93.8172215,85.0104301 95.1741061,83.6567707 C96.5322842,82.3018209 98.4086738,81.4640719 100.4811,81.4640719 L100.4811,81.4640719 L103.171788,81.6040588 L102.411932,79.4745834 C102.132484,78.6914408 101.9811,77.8483866 101.9811,76.9700599 C101.9811,74.9043602 102.820658,73.0343822 104.177542,71.6807228 C105.535721,70.325773 107.41211,69.488024 109.484536,69.488024 C111.981935,69.488024 114.194502,70.7047935 115.558918,72.5766059 C115.811415,72.9230009 116.033666,73.2901828 116.223448,73.673447 C116.58664,73.4393364 116.96571,73.2395704 117.356008,73.074284 C118.256917,72.6927607 119.248132,72.4820359 120.28866,72.4820359 C121.150736,72.4820359 121.978963,72.626607 122.750041,72.8934577 C123.26778,73.072634 123.771696,73.311072 124.252039,73.6094177 C124.322905,73.0619493 124.45465,72.5199787 124.648231,71.9942056 C125.182353,70.5435039 126.154799,69.3041958 127.404528,68.434347 C128.620015,67.5883313 130.098572,67.0928144 131.693013,67.0928144 C132.938423,67.0928144 134.113179,67.3948765 135.147059,67.9305895 C135.626705,68.1791219 136.082753,68.4814256 136.505598,68.8353474 C136.663062,68.3146626 136.877028,67.8105647 137.145094,67.3331309 C137.798566,66.1692748 138.754693,65.1974034 139.906977,64.5232581 C141.019388,63.8724404 142.31494,63.5 143.697595,63.5 C145.743235,63.5 147.597887,64.3162138 148.951671,65.6404254 C149.346305,66.0264383 149.698722,66.455955 150.001191,66.921398 C150.303263,66.455744 150.655399,66.0261203 151.049804,65.6400671 C152.402522,64.3159943 154.257016,63.5 156.302405,63.5 Z" id="Combined-Shape" stroke="#FFFFFF" stroke-width="3" fill="#FFFFFF"></path>
                <path d="M62.845,142.166 L237.154583,142.166667 C236.875213,159.494615 231.764315,175.620955 223.137756,189.196752 C213.811853,203.873122 200.37796,215.569231 184.500624,222.576819 L184.500624,222.576819 L184.500047,241.166667 L116.166602,241.166667 L116.165813,222.86758 C100.333533,216.039973 86.8872773,204.566455 77.4564852,190.11938 C68.4676574,176.349353 63.1273609,159.877399 62.8451177,142.148149 L62.845,142.166 Z" id="Combined-Shape" stroke="#F7B500" stroke-width="3" fill="#F7B500"></path>
            </g>
        </g>
    </g>
</svg>