<?xml version="1.0" encoding="UTF-8"?>
<svg width="223px" height="50px" viewBox="0 0 223 50" version="1.1" xmlns="http://www.w3.org/2000/svg" xmlns:xlink="http://www.w3.org/1999/xlink">
    <title>navigation-logo</title>
    <g id="Page-1" stroke="none" stroke-width="1" fill="none" fill-rule="evenodd">
        <g id="Index" transform="translate(-42.000000, -45.000000)">
            <g id="navigation-logo" transform="translate(42.000000, 45.000000)">
                <text id="Ricerooms" font-family="Helvetica Neue-Bold, Helvetica Neue, Roboto" font-size="30" font-weight="bold" fill="#000000">
                    <tspan x="67" y="36">Ricerooms</tspan>
                </text>
                <g id="navigation-logo">
                    <circle id="Oval" fill="#785858" cx="25" cy="25" r="25"></circle>
                    <path d="M26.0504009,10.5833333 C26.2962977,10.5833333 26.5256618,10.6540279 26.7190572,10.776324 C26.9188416,10.9026603 27.0803325,11.083888 27.1820715,11.2988134 C27.748263,11.261614 27.9904752,11.1821357 28.2512409,11.1821357 C28.4821379,11.1821357 28.6984603,11.2444548 28.8841087,11.3533252 C29.0763977,11.4660898 29.2358379,11.628634 29.3445798,11.8232379 C29.9710894,11.631535 30.2941193,11.4815369 30.6521573,11.4815369 C30.9520494,11.4815369 31.2273301,11.5867551 31.4428082,11.7623285 C31.6620394,11.9409598 31.8195493,12.1922913 31.8778577,12.4796026 C32.397594,12.6795758 32.6476409,12.7585442 32.8525741,12.8952735 C33.0633817,13.0359221 33.2262472,13.2373532 33.3186227,13.4739716 C34.0789831,13.6094328 34.4870988,13.7235971 34.7697384,13.937721 C35.0556441,14.1543192 35.2039901,14.4722889 35.2039901,14.8243513 C35.7993944,15.0743513 36.112126,15.2139761 36.338489,15.4398011 C36.5646364,15.665411 36.7045628,15.977074 36.7045628,16.3213573 C37.2015795,16.8734818 37.5048683,17.3081389 37.5048683,17.8183633 C37.9330169,18.411078 38.2051355,18.8298553 38.2051355,19.3153693 C38.6724957,20.0083238 39.005441,20.4697516 39.005441,21.011976 C39.005441,21.312177 38.8990873,21.5876036 38.7218805,21.8027643 C38.8998576,22.3344121 39.005441,22.6090367 39.005441,22.9081836 C39.184172,23.7919241 39.3055556,24.0844301 39.3055556,24.4051896 C39.3055556,25.8472773 39.1656292,26.1589403 38.9394817,26.3845502 C38.7131187,26.6103752 38.4003871,26.75 38.0549828,26.75 C37.7707421,26.75 37.5086051,26.6554931 37.2985515,26.4961185 C37.0358346,26.2967866 36.854335,25.9962224 36.8132794,25.6524501 L36.8132794,25.6524501 L11.9563034,25.6521957 C11.5798436,25.6170221 11.2647901,25.4713442 11.0430396,25.2501208 C10.8206515,25.0282612 10.6944444,24.7313752 10.6944444,24.4051896 C10.6944444,24.0304699 10.8602231,23.6944194 11.1224664,23.4658599 C11.0590522,22.9618193 10.994559,22.7428969 10.994559,22.508982 C10.994559,22.2459137 11.0761952,22.0018531 11.2156783,21.8007265 C11.3593831,21.5935124 11.5642938,21.4317345 11.804391,21.3415536 C11.8462263,20.8189048 11.7948645,20.6220103 11.7948645,20.4131737 C11.7948645,20.1234494 11.893914,19.8567945 12.0601332,19.6451287 C12.2300618,19.4287396 12.4700205,19.2696349 12.7460707,19.2020642 C12.9187596,18.2482811 12.9975625,17.750557 13.1537392,17.4050703 C13.3107874,17.057656 13.5490331,16.8839025 13.8298892,16.8110397 C14.0634073,16.3140948 14.2188134,16.0532405 14.4396755,15.867239 C14.6573945,15.6838846 14.9389081,15.5733533 15.2462772,15.5733533 C15.4962772,14.5253936 15.6216575,14.1829165 15.862351,13.9427951 C16.088714,13.7169702 16.4014456,13.5773453 16.7468499,13.5773453 C16.9968499,12.5293856 17.1222303,12.1869085 17.3629237,11.9467871 C17.5892868,11.7209622 17.9020184,11.5813373 18.2474227,11.5813373 C18.6640683,11.5813373 19.0331477,11.7845343 19.2604952,12.0970286 C20.8906251,11.5465598 21.3758723,11.1821357 21.9488354,11.1821357 C22.1570967,11.1821357 22.3535036,11.2328167 22.5262349,11.3226605 C22.9679071,11.0282881 23.126457,10.8664381 23.3178247,10.7541436 C23.5030482,10.6454545 23.7190616,10.5833333 23.9495991,10.5833333 C24.2907669,10.5833333 24.6000606,10.7195509 24.8257305,10.9405132 C25.4004077,10.7192989 25.7095209,10.5833333 26.0504009,10.5833333 Z" id="Combined-Shape" stroke="#FFFFFF" stroke-width="0.5" fill="#FFFFFF"></path>
                    <path d="M39.5257193,23.6971901 C39.4786626,26.5841092 38.6269479,29.2708201 37.1896711,31.5327211 C35.6353837,33.9787663 33.3964432,35.9281147 30.7502654,37.0960653 L30.7502654,37.0960653 L30.7500198,40.1944444 L19.3611154,40.1944444 L19.3611678,37.1446825 C16.732927,36.0113117 14.4991937,34.1097598 12.9283146,31.7154438 C11.4732589,29.4976646 10.5870057,26.8570216 10.482614,24.0118689 L10.482614,24.0118689 Z" id="Combined-Shape" stroke="#F7B500" stroke-width="0.5" fill="#F7B500"></path>
                </g>
            </g>
        </g>
    </g>
</svg>