<?xml version="1.0" encoding="UTF-8"?>
<svg width="270px" height="270px" viewBox="0 0 270 270" version="1.1" xmlns="http://www.w3.org/2000/svg" xmlns:xlink="http://www.w3.org/1999/xlink">
    <title>thank-you-card</title>
    <g id="Page-1" stroke="none" stroke-width="1" fill="none" fill-rule="evenodd">
        <g id="Thank-You" transform="translate(-632.000000, -334.000000)">
            <g id="thank-you-card" transform="translate(632.000000, 334.000000)">
                <circle id="Oval" fill="#586A78" cx="135" cy="135" r="135"></circle>
                <path d="M140.672165,56.772 C142.07371,56.772 143.380987,57.1749534 144.483442,57.8717227 C145.622277,58.5914851 146.542902,59.6240916 147.12333,60.8486737 C147.306485,61.2350927 147.453397,61.6356304 147.563623,62.0447085 C147.868598,61.744512 148.198556,61.4741659 148.548629,61.2358605 C149.690268,60.4587116 151.070484,60.0055329 152.556701,60.0055329 C153.871952,60.0055329 155.104196,60.3603396 156.162038,60.9799157 C157.257625,61.6215986 158.166369,62.5466553 158.786898,63.6542863 C159.042776,64.1110218 159.246586,64.593338 159.396154,65.0910501 C159.665059,64.6426953 159.982,64.2258328 160.340249,63.8479844 C161.639683,62.4774578 163.480598,61.6222994 165.521649,61.6222994 C167.231474,61.6222994 168.800919,62.2222772 170.029511,63.2231875 C171.279872,64.2418328 172.177904,65.67525 172.510664,67.3136086 C172.566313,67.5876017 172.60517,67.8624847 172.627819,68.1367487 C172.901445,68.1074785 173.180393,68.0923587 173.463965,68.09214 C175.024613,68.0909361 176.44589,68.5412824 177.611236,69.318232 C178.813577,70.1198465 179.742679,71.2678126 180.27048,72.6163526 C180.384842,72.9085472 180.478976,73.2066157 180.552906,73.5085408 C180.843151,73.3845593 181.138147,73.2813524 181.435913,73.1985918 C182.043686,73.029668 182.685529,72.9396647 183.348454,72.9396647 C185.317916,72.9396647 187.101033,73.7358739 188.391716,75.0234895 C189.681561,76.3102688 190.479546,78.0878828 190.479546,80.051497 C190.479546,80.4076897 190.453289,80.7577622 190.402779,81.0998668 C190.745061,81.0495552 191.095255,81.023497 191.451546,81.023497 C193.421008,81.023497 195.204125,81.8197063 196.494809,83.1073218 C197.784654,84.3941011 198.582639,86.1717151 198.582639,88.1353293 C198.582639,88.4051663 198.567613,88.6714989 198.538312,88.9335355 C198.512921,89.1606105 198.476363,89.3884643 198.428427,89.6165518 C198.641937,89.7021032 198.851756,89.7981474 199.05704,89.9045379 C200.219632,90.5070619 201.194947,91.419744 201.872878,92.53272 C202.527589,93.6075749 202.904289,94.8695076 202.904289,96.2191617 C202.904289,96.5755342 202.878076,96.9257936 202.827395,97.2681142 C202.795252,97.4852195 202.752764,97.7025293 202.699733,97.919604 C202.898132,98.0169825 203.092282,98.123689 203.281454,98.2394855 C205.323216,99.4892945 206.685732,101.737213 206.685732,104.302994 C206.685732,104.878085 206.617447,105.437256 206.488298,105.972818 C206.424709,106.236513 206.345378,106.498578 206.250021,106.7578 C206.507423,106.848372 206.760283,106.953943 207.007182,107.074341 C208.21147,107.661597 209.225159,108.577792 209.930991,109.705591 C210.613404,110.795967 211.007381,112.084447 211.007381,113.464671 C211.007381,115.17366 210.403065,116.741866 209.395835,117.968062 C209.218045,118.184503 209.027364,118.390698 208.824817,118.585422 C209.027544,118.779905 209.218245,118.985947 209.396045,119.202249 C210.403331,120.427664 211.007381,121.995576 211.007381,123.704192 C211.007381,124.530385 210.866374,125.323723 210.606628,126.061389 C210.541295,126.246931 210.4679,126.430512 210.386434,126.611682 C210.530767,126.747152 210.669304,126.888488 210.801694,127.035259 C211.936744,128.293602 212.628,129.960288 212.628,131.788024 C212.628,132.708552 212.452919,133.588292 212.133669,134.395687 C212.453167,135.917086 212.628,136.796263 212.628,137.716168 C212.628,139.679782 211.830015,141.457396 210.54017,142.744175 C209.249486,144.031791 207.466369,144.828 205.496907,144.828 C203.875782,144.828 202.380827,144.288716 201.182969,143.379619 C199.769892,142.307186 198.769374,140.720943 198.463882,138.899222 L198.463882,138.899222 L64.5176513,138.899856 C62.4934691,138.837447 60.7097846,138.031506 59.4298953,136.754659 C58.1460835,135.473899 57.372,133.72109 57.372,131.788024 C57.372,129.652399 58.3159844,127.736891 59.8098603,126.433387 C60.0262279,126.244592 60.2537528,126.068966 60.4910471,125.907436 C60.3135385,125.680695 60.150826,125.444178 60.0034171,125.199462 C59.3614321,124.13369 58.9926186,122.884031 58.9926186,121.548503 C58.9926186,120.048378 59.4581166,118.656662 60.25328,117.509619 C61.0721874,116.328324 62.2399813,115.406003 63.6082789,114.891475 C63.9946993,114.746167 64.3905205,114.635861 64.7909036,114.560215 C64.5376611,114.233878 64.3157323,113.888435 64.126068,113.528524 C63.6072935,112.544084 63.314268,111.421725 63.314268,110.231138 C63.314268,108.580129 63.8782356,107.060491 64.8247003,105.853715 C65.7920904,104.620258 67.1584119,103.712929 68.7303656,103.326083 C69.0703927,103.242405 69.413199,103.184764 69.7560922,103.152261 C69.6264445,102.825512 69.5227835,102.493919 69.444338,102.159969 C69.3214414,101.636786 69.2565361,101.091229 69.2565361,100.530539 C69.2565361,100.043163 69.3055722,99.5672212 69.3991483,99.1073901 C69.3055408,98.2600279 69.2565361,97.7842307 69.2565361,97.297006 C69.2565361,95.6622237 69.8094613,94.1562352 70.7391751,92.955252 C71.690306,91.7266026 73.0351003,90.8164634 74.5853979,90.4140075 C74.7962171,90.359279 75.0082827,90.3146017 75.2208779,90.2795669 C75.2370742,90.0651241 75.2632013,89.8501771 75.2995478,89.6353116 C75.5858458,87.9428319 76.4725913,86.4541283 77.732552,85.3931514 C78.9739173,84.3478332 80.5782347,83.7181078 82.3298969,83.7181078 C82.5701304,83.7181078 82.8075924,83.7299523 83.0415678,83.752968 C83.1447217,83.4818468 83.2291513,83.2100729 83.2835504,82.9340679 C83.4072528,82.3064391 83.3789805,81.6401297 83.3377008,80.9466536 C83.3202446,80.6533987 83.3018969,80.3545317 83.3018969,80.051497 C83.3018969,78.0878828 84.0998821,76.3102688 85.3897273,75.0234895 C86.6804107,73.7358739 88.4635277,72.9396647 90.4329897,72.9396647 C90.6730419,72.9396647 90.9103257,72.9514935 91.144261,72.974518 C91.2475793,72.7034418 91.3321277,72.4317645 91.3865843,72.1559235 C91.5104001,71.5287548 91.4821463,70.8623775 91.4408286,70.1686332 C91.4233565,69.8752674 91.4049897,69.5762467 91.4049897,69.2730539 C91.4049897,67.3094397 92.2029749,65.5318257 93.4928201,64.2450463 C94.7835035,62.9574308 96.5666205,62.1612216 98.5360825,62.1612216 C100.909801,62.1612216 103.012724,63.3179797 104.309249,65.0973302 C104.468782,65.3162737 104.615602,65.5439511 104.749201,65.7788346 C104.985542,65.6443557 105.227973,65.5245235 105.475167,65.419416 C106.329603,65.0561077 107.271265,64.8558323 108.259794,64.8558323 C109.079065,64.8558323 109.866136,64.9933609 110.598904,65.2469829 C110.920741,65.358376 111.23697,65.4938482 111.544928,65.6533496 C111.615057,65.3190141 111.709663,64.9883775 111.828987,64.664215 C112.336521,63.2854305 113.260461,62.1074138 114.448172,61.2806857 C115.603286,60.4766475 117.008392,60.0055329 118.523711,60.0055329 C119.70737,60.0055329 120.823811,60.2928219 121.80639,60.8019784 C122.10457,60.9564905 122.393165,61.1328564 122.669648,61.3305467 C122.791271,61.0163214 122.935317,60.7101909 123.101155,60.4147974 C123.722062,59.308827 124.630525,58.3852792 125.725425,57.744681 C126.782597,57.1261558 128.013789,56.772 129.327835,56.772 C131.272084,56.772 133.034737,57.5479407 134.321288,58.8066169 C134.565815,59.0458452 134.793284,59.3026501 135.001778,59.5745493 C135.209777,59.3022034 135.436911,59.0454443 135.681137,58.8062552 C136.966522,57.5473814 138.728628,56.772 140.672165,56.772 Z" id="Combined-Shape" stroke="#FFFFFF" stroke-width="1.944" fill="#FFFFFF"></path>
                <path d="M213.591424,127.8 C213.367145,143.481791 208.754077,158.077013 200.950564,170.357555 C192.558836,183.563781 180.478189,194.093688 166.20049,200.416857 L166.20049,200.416857 L166.200033,217.2 L104.399868,217.2 L104.398056,200.678911 C90.1616215,194.517622 78.0705032,184.188282 69.5848932,171.18892 C61.479332,158.771765 56.6640364,143.917963 56.4106533,127.939898 L56.4106533,127.939898 Z" id="Combined-Shape" stroke="#F7B500" stroke-width="2.4" fill="#F7B500"></path>
            </g>
        </g>
    </g>
</svg>